<svg width="103" height="51" viewBox="0 0 103 51" fill="none" xmlns="http://www.w3.org/2000/svg">
<path d="M102.687 4.35175C102.687 2.06901 100.78 0.249157 98.4993 0.356146L4.16124 4.78252C2.02734 4.88265 0.34872 6.64188 0.34872 8.77813V40.2804C0.34872 42.3904 1.9877 44.1375 4.09341 44.2722L98.4315 50.3058C100.736 50.4532 102.687 48.6235 102.687 46.3139V4.35175Z" fill="#233C64"/>
<path d="M100.57 5.39472C100.57 3.11198 98.6627 1.29213 96.3825 1.39911L6.27842 5.62683C4.14452 5.72695 2.4659 7.48619 2.4659 9.62243V39.5082C2.4659 41.6182 4.10488 43.3654 6.2106 43.5L96.3146 49.2628C98.6195 49.4102 100.57 47.5805 100.57 45.271V5.39472Z" fill="#B6CB3B"/>
<path d="M7.65301 24.457H3.89301V10.457H7.29301L12.013 16.697C13.573 14.677 15.233 12.457 16.773 10.457H20.113V24.457H16.353V16.657C15.253 18.117 14.093 19.657 13.013 21.037H10.973L7.65301 16.697V24.457ZM26.4421 21.677L25.0221 24.457H21.1021V24.197L28.0821 10.377H31.1021L38.1021 24.277V24.457H34.0621L32.6421 21.677H26.4421ZM28.0021 18.557H31.1021L30.6221 17.577L29.5821 14.777L28.5221 17.497L28.0021 18.557ZM43.1938 10.457V24.457H39.4338V10.457H43.1938ZM44.9071 19.517H48.6671C49.0671 21.397 50.8271 21.537 52.1071 21.557C52.9071 21.557 55.2271 21.377 55.2471 20.197C55.2671 18.737 52.3871 18.897 51.2671 18.897C48.6471 18.777 45.1271 18.437 45.1271 14.777C45.1271 11.037 48.9471 10.177 51.7671 10.117C54.7071 10.077 58.6071 10.837 58.6671 14.997H55.0071C54.9871 13.797 53.5271 13.317 51.8671 13.317C50.3871 13.297 48.8871 13.737 48.9071 14.677C48.9071 15.617 50.0671 15.677 51.3271 15.737C55.1471 15.777 59.0271 16.297 59.0271 20.037C59.0271 22.637 56.7871 24.177 54.3471 24.637C53.7671 24.757 53.0071 24.817 52.1471 24.817C49.1271 24.817 45.2071 23.857 44.9071 19.517ZM60.5186 17.417C60.5186 7.67703 75.6386 7.65703 75.6386 17.417C75.6386 27.277 60.5186 27.257 60.5186 17.417ZM71.8386 17.417C71.8386 12.077 64.3186 12.057 64.3186 17.417C64.3186 22.837 71.8386 22.817 71.8386 17.417ZM80.4896 10.457L87.4096 18.497L87.6096 18.777L87.5696 18.377V10.457H91.2296V24.457H87.8296L81.0096 16.377V24.457H77.3296V10.457H80.4896Z" fill="#F2CB52"/>
<path d="M8.14557 23.8467H4.38557V9.84668H7.78557L12.5056 16.0867C14.0656 14.0667 15.7256 11.8467 17.2656 9.84668H20.6056V23.8467H16.8456V16.0467C15.7456 17.5067 14.5856 19.0467 13.5056 20.4267H11.4656L8.14557 16.0867V23.8467ZM26.9346 21.0667L25.5146 23.8467H21.5946V23.5867L28.5746 9.76668H31.5946L38.5946 23.6667V23.8467H34.5546L33.1346 21.0667H26.9346ZM28.4946 17.9467H31.5946L31.1146 16.9667L30.0746 14.1667L29.0146 16.8867L28.4946 17.9467ZM43.6863 9.84668V23.8467H39.9263V9.84668H43.6863ZM45.3996 18.9067H49.1596C49.5596 20.7867 51.3196 20.9267 52.5996 20.9467C53.3996 20.9467 55.7196 20.7667 55.7396 19.5867C55.7596 18.1267 52.8796 18.2867 51.7596 18.2867C49.1396 18.1667 45.6196 17.8267 45.6196 14.1667C45.6196 10.4267 49.4396 9.56668 52.2596 9.50668C55.1996 9.46668 59.0996 10.2267 59.1596 14.3867H55.4996C55.4796 13.1867 54.0196 12.7067 52.3596 12.7067C50.8796 12.6867 49.3796 13.1267 49.3996 14.0667C49.3996 15.0067 50.5596 15.0667 51.8196 15.1267C55.6396 15.1667 59.5196 15.6867 59.5196 19.4267C59.5196 22.0267 57.2796 23.5667 54.8396 24.0267C54.2596 24.1467 53.4996 24.2067 52.6396 24.2067C49.6196 24.2067 45.6996 23.2467 45.3996 18.9067ZM61.0112 16.8067C61.0112 7.06668 76.1312 7.04668 76.1312 16.8067C76.1312 26.6667 61.0112 26.6467 61.0112 16.8067ZM72.3312 16.8067C72.3312 11.4667 64.8112 11.4467 64.8112 16.8067C64.8112 22.2267 72.3312 22.2067 72.3312 16.8067ZM80.9821 9.84668L87.9021 17.8867L88.1021 18.1667L88.0621 17.7667V9.84668H91.7221V23.8467H88.3221L81.5021 15.7667V23.8467H77.8221V9.84668H80.9821Z" fill="#0B3474"/>
<path d="M23.7758 37.4496H27.5358C27.9358 39.3296 29.6959 39.4696 30.9758 39.4896C31.7759 39.4896 34.0958 39.3096 34.1159 38.1296C34.1359 36.6696 31.2558 36.8296 30.1358 36.8296C27.5158 36.7096 23.9958 36.3696 23.9958 32.7096C23.9958 28.9696 27.8158 28.1096 30.6358 28.0496C33.5759 28.0096 37.4759 28.7696 37.5359 32.9296H33.8758C33.8559 31.7296 32.3958 31.2496 30.7358 31.2496C29.2558 31.2296 27.7558 31.6696 27.7758 32.6096C27.7758 33.5496 28.9358 33.6096 30.1958 33.6696C34.0159 33.7096 37.8959 34.2296 37.8959 37.9696C37.8959 40.5696 35.6558 42.1096 33.2159 42.5696C32.6358 42.6896 31.8759 42.7496 31.0158 42.7496C27.9958 42.7496 24.0758 41.7896 23.7758 37.4496ZM43.2977 28.3896V35.0496C43.2977 38.0096 45.0177 39.4896 46.7377 39.5096C48.4577 39.5096 50.2177 38.0496 50.2377 35.0496V28.3896H53.9777V35.0496C53.9777 40.1896 50.3777 42.7496 46.7777 42.7496C43.1577 42.7496 39.5377 40.1896 39.5377 35.0496V28.3896H43.2977ZM60.0713 31.5096V33.8496H67.6313V36.9896H60.0713V39.2496H67.9513V42.3896H56.4113V28.3896H67.9513V31.5096H60.0713ZM64.0913 27.0496V27.2496H61.3913L59.0313 24.2096V24.0896H62.4313L64.0913 27.0496ZM76.6618 42.3896H70.0218V28.3896H76.6618C80.8618 28.3896 83.7218 31.3896 83.7218 35.3896C83.7018 39.3896 80.8818 42.3896 76.6618 42.3896ZM73.8218 39.2296H76.6618C81.0218 39.2296 81.0218 31.5296 76.6618 31.5296H73.8218V39.2296ZM89.1729 31.5096V33.8496H96.7329V36.9896H89.1729V39.2496H97.0529V42.3896H85.5129V28.3896H97.0529V31.5096H89.1729Z" fill="#F2CB52"/>
<path d="M24.2685 37.1079H28.0285C28.4285 38.9879 30.1885 39.1279 31.4685 39.1479C32.2685 39.1479 34.5885 38.9679 34.6085 37.7879C34.6285 36.3279 31.7485 36.4879 30.6285 36.4879C28.0085 36.3679 24.4885 36.0279 24.4885 32.3679C24.4885 28.6279 28.3085 27.7679 31.1285 27.7079C34.0685 27.6679 37.9685 28.4279 38.0285 32.5879H34.3685C34.3485 31.3879 32.8885 30.9079 31.2285 30.9079C29.7485 30.8879 28.2485 31.3279 28.2685 32.2679C28.2685 33.2079 29.4285 33.2679 30.6885 33.3279C34.5085 33.3679 38.3885 33.8879 38.3885 37.6279C38.3885 40.2279 36.1485 41.7679 33.7085 42.2279C33.1285 42.3479 32.3685 42.4079 31.5085 42.4079C28.4885 42.4079 24.5685 41.4479 24.2685 37.1079ZM43.7904 28.0479V34.7079C43.7904 37.6679 45.5104 39.1479 47.2304 39.1679C48.9504 39.1679 50.7104 37.7079 50.7304 34.7079V28.0479H54.4704V34.7079C54.4704 39.8479 50.8704 42.4079 47.2704 42.4079C43.6504 42.4079 40.0304 39.8479 40.0304 34.7079V28.0479H43.7904ZM60.564 31.1679V33.5079H68.124V36.6479H60.564V38.9079H68.444V42.0479H56.904V28.0479H68.444V31.1679H60.564ZM64.584 26.7079V26.9079H61.884L59.524 23.8679V23.7479H62.924L64.584 26.7079ZM77.1545 42.0479H70.5145V28.0479H77.1545C81.3545 28.0479 84.2145 31.0479 84.2145 35.0479C84.1945 39.0479 81.3745 42.0479 77.1545 42.0479ZM74.3145 38.8879H77.1545C81.5145 38.8879 81.5145 31.1879 77.1545 31.1879H74.3145V38.8879ZM89.6656 31.1679V33.5079H97.2256V36.6479H89.6656V38.9079H97.5456V42.0479H86.0056V28.0479H97.5456V31.1679H89.6656Z" fill="#0B3474"/>
<path d="M9.23141 37.894H5.91141V30.894H9.23141C11.3314 30.894 12.7614 32.394 12.7614 34.394C12.7514 36.394 11.3414 37.894 9.23141 37.894ZM7.81141 36.314H9.23141C11.4114 36.314 11.4114 32.464 9.23141 32.464H7.81141V36.314ZM15.487 32.454V33.624H19.267V35.194H15.487V36.324H19.427V37.894H13.657V30.894H19.427V32.454H15.487Z" fill="#F2CB52"/>
<path d="M9.72396 37.457H6.40396V30.457H9.72396C11.824 30.457 13.254 31.957 13.254 33.957C13.244 35.957 11.834 37.457 9.72396 37.457ZM8.30396 35.877H9.72396C11.904 35.877 11.904 32.027 9.72396 32.027H8.30396V35.877ZM15.9795 32.017V33.187H19.7595V34.757H15.9795V35.887H19.9195V37.457H14.1495V30.457H19.9195V32.017H15.9795Z" fill="#0B3474"/>
</svg>
