<svg width="74" height="98" viewBox="0 0 74 98" fill="none" xmlns="http://www.w3.org/2000/svg">
<path d="M19.1 37.6998C21.9 37.6998 24 37.0998 25.3 35.8998C26.7 34.6998 27.3 32.7998 27.3 30.2998C27.3 27.6998 26.6 25.7998 25.3 24.5998C24 23.3998 21.9 22.6998 19 22.6998H12.3V43.4998H16.5V37.6998H19.1ZM16.5 26.6998H18.9C20.3 26.6998 21.3 26.9998 22 27.4998C22.7 27.9998 23 28.8998 23 30.0998C23 31.2998 22.7001 32.1998 22.2001 32.7998C21.7001 33.3998 20.7 33.6998 19.3 33.6998H16.5V26.6998Z" fill="#0C356A"/>
<path d="M43.7999 40.5998C45.5999 38.6998 46.4 36.1998 46.4 32.8998C46.4 29.6998 45.5 27.0998 43.7 25.2998C41.9 23.4998 39.3 22.5998 35.9 22.5998H29.2V43.3998H35.7C39.3 43.4998 41.9999 42.4998 43.7999 40.5998ZM40.5999 37.7998C39.5999 38.8998 38.1 39.3998 36.2 39.3998H33.5V26.6998H35.9C38 26.6998 39.6 27.2998 40.7 28.3998C41.7 29.4998 42.2999 31.0998 42.2999 33.0998C42.1999 35.0998 41.5999 36.6998 40.5999 37.7998Z" fill="#0C356A"/>
<path d="M61.6999 26.7998V22.6998H48.7V43.4998H52.9V35.2998H61.1999V31.2998H52.9V26.7998H61.6999Z" fill="#0C356A"/>
<path d="M67.2 0.799805H6.8C3.3 0.799805 0.5 3.5998 0.5 7.0998V80.8998C0.5 84.3998 3.3 87.1998 6.8 87.1998H20.7L18.8 85.2998L16.9 83.3998H6.9C5.5 83.3998 4.4 82.2998 4.4 80.8998V7.0998C4.4 5.6998 5.5 4.5998 6.9 4.5998H67.4C68.8 4.5998 69.9 5.6998 69.9 7.0998V80.8998C69.9 82.2998 68.8 83.3998 67.4 83.3998H58.8L56.9 85.2998L55 87.1998H67.4C70.9 87.1998 73.7 84.3998 73.7 80.8998V7.0998C73.6 3.5998 70.7 0.799805 67.2 0.799805Z" fill="#0C356A"/>
<path d="M59.0999 75.3998L45.9999 75.2998V53.6998H27.9999V74.9998L14.8999 74.7998L37.2999 97.1998L59.0999 75.3998Z" fill="#0C356A"/>
</svg>
